<svg width="26" height="26" viewBox="0 0 26 26" fill="none" xmlns="http://www.w3.org/2000/svg">
<path d="M13 0.5C6.1 0.5 0.5 6.1 0.5 13C0.5 19.9 6.1 25.5 13 25.5C19.9 25.5 25.5 19.9 25.5 13C25.5 6.1 19.9 0.5 13 0.5ZM18.0375 13.6625L14.2875 17.4125C14.1 17.6 13.8625 17.6875 13.625 17.6875C13.3875 17.6875 13.15 17.6 12.9625 17.4125C12.6 17.05 12.6 16.45 12.9625 16.0875L15.1125 13.9375H8.625C8.1125 13.9375 7.6875 13.5125 7.6875 13C7.6875 12.4875 8.1125 12.0625 8.625 12.0625H15.1125L12.9625 9.9125C12.6 9.55 12.6 8.95 12.9625 8.5875C13.325 8.225 13.925 8.225 14.2875 8.5875L18.0375 12.3375C18.4 12.7 18.4 13.3 18.0375 13.6625Z" fill="#292D32"/>
</svg>
