<svg width="35" height="29" viewBox="0 0 35 29" fill="none" xmlns="http://www.w3.org/2000/svg">
<path d="M4.03975 21.4194C4.21475 23.7777 5.8335 25.7124 9.8585 25.7124H25.1418C29.1668 25.7124 30.771 23.7777 30.9606 21.4194L31.7189 11.9634C31.9231 9.49059 29.4147 7.39561 26.2502 7.39561C25.3606 7.39561 24.5439 6.99493 24.1356 6.37674L23.0856 4.71677C22.4147 3.67501 20.6647 2.81641 19.1772 2.81641H15.8377C14.3356 2.81641 12.5856 3.67501 11.9147 4.71677L10.8647 6.37674C10.4564 6.99493 9.63975 7.39561 8.75016 7.39561C5.58558 7.39561 3.07725 9.49059 3.28141 11.9634L3.66058 16.6227" stroke="#444444" stroke-width="1.5" stroke-linecap="round" stroke-linejoin="round"/>
<path d="M15.3127 9.68506H19.6877" stroke="#444444" stroke-width="1.5" stroke-linecap="round" stroke-linejoin="round"/>
<path d="M17.5003 21.1341C20.1107 21.1341 22.2399 19.4627 22.2399 17.4135C22.2399 15.3643 20.1107 13.6929 17.5003 13.6929C14.8899 13.6929 12.7607 15.3643 12.7607 17.4135C12.7607 19.4627 14.8899 21.1341 17.5003 21.1341Z" stroke="#444444" stroke-width="1.5" stroke-linecap="round" stroke-linejoin="round"/>
</svg>
