<svg width="18" height="18" viewBox="0 0 18 18" fill="none" xmlns="http://www.w3.org/2000/svg">
<path d="M8.11068 1.19849H6.53053C2.58015 1.19849 1 2.77864 1 6.72902V11.4695C1 15.4198 2.58015 17 6.53053 17H11.271C15.2214 17 16.8015 15.4198 16.8015 11.4695V9.88932M11.1999 2.89715C11.7292 4.78543 13.2067 6.26287 15.1028 6.80013M12.0927 2.00437L5.86687 8.23016C5.62984 8.46718 5.39282 8.93333 5.34542 9.27306L5.00568 11.6512C4.87927 12.5124 5.48763 13.1128 6.34881 12.9943L8.72694 12.6546C9.05877 12.6072 9.52492 12.3702 9.76984 12.1331L15.9956 5.90734C17.0701 4.83284 17.5758 3.58452 15.9956 2.00437C14.4155 0.424216 13.1672 0.929864 12.0927 2.00437Z" stroke="#FD3078" stroke-width="1.5" stroke-miterlimit="10" stroke-linecap="round" stroke-linejoin="round"/>
</svg>
