<svg width="25" height="19" viewBox="0 0 27 19" fill="none" xmlns="http://www.w3.org/2000/svg">
<path d="M19.0912 9.5C19.0912 12.6296 16.5542 15.1667 13.4246 15.1667C10.2949 15.1667 7.75789 12.6296 7.75789 9.5C7.75789 6.37039 10.2949 3.83333 13.4246 3.83333C16.5542 3.83333 19.0912 6.37039 19.0912 9.5Z" stroke="#222222"/>
<path d="M25.0243 7.99024C25.5742 8.65788 25.8491 8.99169 25.8491 9.5C25.8491 10.0083 25.5742 10.3421 25.0243 11.0098C23.0125 13.4523 18.5752 18 13.4246 18C8.27393 18 3.83664 13.4523 1.82484 11.0098C1.27495 10.3421 1 10.0083 1 9.5C1 8.99169 1.27495 8.65787 1.82484 7.99024C3.83664 5.5477 8.27393 1 13.4246 1C18.5752 1 23.0125 5.5477 25.0243 7.99024Z" stroke="#222222"/>
</svg>
