<svg width="32" height="31" viewBox="0 0 32 31" fill="none" xmlns="http://www.w3.org/2000/svg">
<path d="M26.0664 31C26.4601 31 26.8128 30.7634 26.9524 30.4056L31.9376 17.6245C32.1726 17.022 31.7146 16.3774 31.0516 16.3774H5.93364C5.53988 16.3774 5.18716 16.614 5.04761 16.9718L0.062382 29.7528C-0.172606 30.3553 0.285409 31 0.948412 31H26.0664Z" fill="url(#paint0_linear_2070_65)"/>
<path d="M26.0664 0C26.4601 0 26.8128 0.236638 26.9524 0.594435L31.9376 13.3755C32.1726 13.978 31.7146 14.6226 31.0516 14.6226H5.93364C5.53988 14.6226 5.18716 14.386 5.04761 14.0282L0.062382 1.24715C-0.172606 0.644689 0.285409 0 0.948412 0H26.0664Z" fill="url(#paint1_linear_2070_65)"/>
<defs>
<linearGradient id="paint0_linear_2070_65" x1="15.343" y1="0.479383" x2="40.1974" y2="8.70494" gradientUnits="userSpaceOnUse">
<stop stop-color="#FD3078"/>
<stop offset="1" stop-color="#E42A9A"/>
</linearGradient>
<linearGradient id="paint1_linear_2070_65" x1="15.343" y1="0.479383" x2="40.1974" y2="8.70494" gradientUnits="userSpaceOnUse">
<stop stop-color="#FD3078"/>
<stop offset="1" stop-color="#E42A9A"/>
</linearGradient>
</defs>
</svg>
