<svg width="30" height="30" viewBox="0 0 30 30" fill="none" xmlns="http://www.w3.org/2000/svg">
<path d="M30 15C30 6.71573 23.2843 0 15 0C6.71573 0 0 6.71573 0 15C0 23.2843 6.71573 30 15 30C23.2843 30 30 23.2843 30 15Z" fill="#FD3078"/>
<path d="M18.1391 6.96004L9.10914 9.96004C3.03914 11.99 3.03914 15.3 9.10914 17.32L11.7891 18.21L12.6791 20.89C14.6991 26.96 18.0191 26.96 20.0391 20.89L23.0491 11.87C24.3891 7.82004 22.1891 5.61004 18.1391 6.96004ZM18.4591 12.34L14.6591 16.16C14.5091 16.31 14.3191 16.38 14.1291 16.38C13.9391 16.38 13.7491 16.31 13.5991 16.16C13.3091 15.87 13.3091 15.39 13.5991 15.1L17.3991 11.28C17.6891 10.99 18.1691 10.99 18.4591 11.28C18.7491 11.57 18.7491 12.05 18.4591 12.34Z" fill="#2A2A2A"/>
</svg>
